<svg version="1" xmlns="http://www.w3.org/2000/svg" width="933.333" height="933.333" viewBox="0 0 700.000000 700.000000"><path d="M228.4 20.2c-.1 1.3-.4 5.4-.8 9.3-.8 9.4-1.5 16.7-2.1 24.5-.3 3.6-.7 9-1 12-.3 3-.7 8.4-1 12-.5 5.9-.8 10.2-2 23-.4 4.7-1.4 15.7-2 22.5-.2 2.2-.6 8-1 13-.4 4.9-.8 9.9-1 11.1-.2 2.1.5 1.9 11.9-2.7 6.7-2.7 13-5.3 14.1-5.8 2.5-1.1 4.3-1.8 63.5-25.8 4.7-1.9 9.9-4 11.5-4.7 1.7-.7 4.5-1.9 6.3-2.6 2.9-1.1 4.4-3 2.5-3-.5 0-2.6-1.7-4.8-3.8-2.2-2-5.6-5-7.5-6.6-1.9-1.6-6.2-5.2-9.5-8.1-8.3-7.4-10.2-9-16.4-14.3-3-2.6-6.2-5.4-7.1-6.2-.9-.8-6.3-5.5-12-10.5-5.8-4.9-11.8-10.2-13.5-11.6C243.7 30.6 229 18 228.7 18c-.1 0-.3 1-.3 2.2zM458.5 28.7c-6.6 5.7-13.3 11.7-15 13.1-1.6 1.5-14.7 12.8-29 25.2-14.3 12.3-27.2 23.6-28.7 25-1.5 1.4-5.2 4.5-8.2 7-3 2.5-5.5 4.8-5.6 5.1 0 .9 2 1.7 41 17.4 20.1 8.1 37.9 15.3 39.5 16.1 1.7.7 5.9 2.4 9.5 3.8 3.6 1.4 9.2 3.6 12.5 5 7.1 3 8.5 3.2 8.1.8-.2-.9-.7-5.8-1.1-10.7-.4-5-.8-10.4-1-12-.8-8.9-1.8-20.4-3-36-.4-3.9-.8-9-1-11.5-.2-2.5-.7-7.4-1-11-.3-3.6-.8-8.8-1-11.5-.3-2.8-.7-8.2-1-12-.3-3.9-.8-9.9-1.1-13.5-.4-3.6-.6-7.3-.6-8.2 0-1-.2-1.9-.6-2.1-.4-.2-6.1 4.3-12.7 10zM53 144.5c0 .3 5.7 11 12.6 23.8 17.7 32.6 16.5 30.4 32.9 60.7 8.2 15.1 15.4 28.3 16 29.3 1.1 1.6 1.6 1.2 5.2-4 2.2-3.2 16.5-24 31.9-46.3 28.3-41 31.4-45.6 31.4-46.3 0-.2-2.1-.7-4.7-1-2.7-.3-10-1.3-16.3-2.2-6.3-.8-13.3-1.8-15.5-2.1-2.2-.2-5.1-.7-6.5-.9-1.4-.2-4.7-.7-7.5-1-2.7-.3-6.1-.7-7.5-1-1.4-.2-4.7-.7-7.5-1-2.7-.4-6.5-.8-8.2-1.1-1.8-.2-5-.6-7-.9-7.6-1-12.7-1.7-21.8-3-1.6-.2-5.2-.7-8-1-2.7-.3-7.9-1-11.5-1.5-7.7-1.1-8-1.1-8-.5zM641.9 144.4c-.2.2-3.1.7-6.4 1-3.3.4-6.7.9-7.5 1.1-.8.2-4 .6-7.1 1-3.1.3-6.5.7-7.5.9-1.1.2-4.6.7-7.9 1.1-3.2.4-6.7.8-7.6 1-.9.2-4 .6-7 1-3 .3-6.5.8-7.9 1-1.4.2-5 .7-8 1-3 .4-5.7.8-6 1-.3.1-3.6.6-7.3 1-3.7.3-7.8.8-8.9 1-1.2.3-4.4.7-7.2 1-5.4.6-10.6 1.4-14.6 2.1-1.4.2-5 .7-8 1-3 .3-5.7.7-5.9 1-.4.3 5.7 9.5 17.4 26.4 7.1 10.2 12.7 18.3 23.5 34 6.2 9.1 13.4 19.4 15.9 23 2.4 3.6 5.8 8.4 7.4 10.8 3.4 5.1 2.7 5.7 10.7-9.3 2.9-5.5 5.6-10.5 6-11 .4-.6 3.5-6.4 7-13s6.6-12.5 7-13c.4-.6 3.1-5.5 6-11s7.4-13.8 10-18.5c2.6-4.7 7.1-13 10-18.5 2.9-5.5 5.6-10.5 6.1-11 .4-.6 1.2-2.3 1.8-3.8 1-2.5.8-2.7-1.3-2.7-1.2 0-2.5.2-2.7.4zM348.8 149.4c-.1.2-5.9.6-12.8.9-17.4.9-42.8 5.9-53.5 10.6-2.2 1-5.2 2.1-6.7 2.4-1.5.4-7.4 2.9-13 5.6-47.7 22.7-83.3 61.4-102.3 111.2-2 5.1-4 10.9-4.4 12.8-.5 2-1.6 6.1-2.4 9.1-3.4 12.3-5.7 29.8-5.9 45-.2 7.9 1 28.9 1.6 29.9.2.3.7 2.8 1 5.6.4 2.7 2 10.2 3.6 16.6 8.8 34.8 26.2 65.7 51.5 91.3 6.6 6.7 15.4 14.6 18.9 17.1 1.6 1.1 4 3 5.5 4.1 1.4 1.2 6.9 4.8 12.1 8.1 38.7 24.3 86.8 34.9 131.4 28.9 9.9-1.4 12.8-1.9 22.1-4.2 45-11.3 83.3-36.3 110.9-72.4 21.9-28.6 37-65.2 40.1-97.1.4-3.5.9-7.5 1.1-8.9.5-3.3.5-27.6 0-32-.3-1.9-.7-6.2-1.1-9.5-2.9-26.5-14.5-58.3-30.2-82.7-27.5-42.8-69.8-73.1-119.8-85.9-12.3-3.2-23-4.9-34.5-5.5-5.8-.3-11-.7-11.7-.9-.6-.2-1.3-.2-1.5-.1zM88.5 303.1c-15.9 8.1-42.2 21.4-58.2 29.6C14.2 340.8 1 347.7 1 348c0 .5 7.9 4.6 77.8 40.1 38.9 19.8 39.2 20 39.2 17.2.2-12.4 0-116.6-.2-116.8-.2-.1-13.3 6.4-29.3 14.6zM582 296.8c-.1 9.7-.1 101.5 0 107.5v3.7l36.3-18.4c67-34 80.7-41.1 80.7-41.6 0-.3-15.3-8.2-34-17.7-18.6-9.5-45-22.9-58.5-29.7L582 288.1v8.7zM99.5 469.2c-8.7 16.1-16.8 31.1-18 33.3-2.9 5.2-14.6 26.9-19.8 36.5-2.2 4.1-5.1 9.4-6.5 11.8-1.3 2.4-2.2 4.5-2 4.7.4.4 12.2-.9 25.8-2.9 4-.6 24.7-3.3 30-4 4.9-.6 20-2.6 23-3.1 3.2-.5 26.5-3.6 30.5-4 1.7-.2 4.4-.6 6-.9 1.7-.2 5.6-.8 8.8-1.2 3.8-.4 5.7-1.1 5.4-1.8-.3-.6-3.7-5.9-7.7-11.6-4-5.8-8.7-12.8-10.6-15.5-1.8-2.8-4.8-7-6.5-9.5-4.1-5.8-32.9-47.5-34.9-50.4-.8-1.3-2.7-4.2-4.3-6.4-1.5-2.3-2.9-4.2-3.1-4.2-.1 0-7.4 13.2-16.1 29.2zM569.9 460.7c-7.8 11.5-15.8 22.9-17.5 25.5-1.8 2.5-8.3 12-14.5 21-6.2 8.9-13.2 19.2-15.6 22.6-6.4 9.2-6.4 8.9.9 9.7 3.5.5 7.2.9 8.3 1.1 1.1.1 4 .5 6.5.8 10.1 1.4 19.6 2.7 22 3 1.4.3 4.8.7 7.5 1.1 2.8.3 7.9 1 11.5 1.5 6.5.9 11.4 1.5 20 2.6 2.5.3 5.6.7 7 .9 1.4.2 4.5.7 7 1 2.5.4 5.6.8 7 1 1.4.2 6.3.9 11 1.5s10.2 1.3 12.3 1.6c2 .3 3.7.3 3.7 0s-10.1-19.1-22.4-41.8c-25.1-46.3-26.3-48.7-33.1-61.3-2.7-5-5.4-9.8-6-10.8-1.1-1.5-3 .9-15.6 19zM217.4 552.7c.2 1 .7 5.8 1 10.8.4 4.9.9 10.8 1.1 13 .6 5.9 1.5 16.3 3 35 .7 8 1.3 15 2 21.5.2 2.5.7 8.3 1 13 .3 4.7.8 10.1 1 12 .2 1.9.7 7.2 1 11.8.9 10.4 1.1 11.7 1.7 11.7.4 0 2.1-1.4 4-3 1.8-1.7 13.4-11.8 25.8-22.5s22.7-19.7 23-20c.3-.3 3.6-3.2 7.5-6.5 3.8-3.3 8.5-7.4 10.5-9.2 1.9-1.7 4.5-4 5.6-5 7.9-6.7 12.2-10.4 14.4-12.3 1.4-1.2 3.8-3.3 5.4-4.6 1.6-1.4 2.6-2.7 2.4-3-1-.9-108.4-44.4-109.7-44.4-.6 0-.8.8-.7 1.7zM467 556.6c-7.4 3.1-27.2 11.1-44 17.9-53.2 21.5-52 21-50.9 21.8.2.1 3.8 3.2 7.9 6.7 4.1 3.6 8.6 7.5 10 8.6 1.4 1.2 6.8 5.9 12.1 10.5 5.2 4.6 12.2 10.7 15.5 13.5 8.7 7.6 30.7 26.7 32 27.9.6.5 3.8 3.2 7 6 3.2 2.7 7.7 6.7 10 8.8 2.3 2 4.3 3.7 4.6 3.7.2 0 .4-1 .5-2.3 0-2 .5-8.3 1.8-21.7.2-2.5.7-7.9 1-12 .3-4.1.8-9.5 1-12 .3-2.5.7-7.4 1-11 1-12.9 1.6-19.6 2-23.5.2-2.2.7-7.8 1.1-12.5.3-4.7.7-9.9.9-11.5.1-1.7.6-7.1 1-12 .4-5 .9-9.8 1-10.8.2-.9-.2-1.7-.8-1.7-.7.1-7.3 2.6-14.7 5.6z"/></svg>